<svg xmlns="http://www.w3.org/2000/svg" width="32" height="35" viewBox="0 0 32 35" fill="none">
  <rect x="3.74097" y="16.0264" width="20.8942" height="3.71985" fill="#00D873"/>
  <path d="M1.15294 18.553C0.922293 18.3223 0.923909 17.9479 1.15654 17.7192L15.5948 3.52791C16.0954 3.03584 16.8991 3.0393 17.3955 3.53568L18.6805 4.82068C19.183 5.32315 19.1794 6.13889 18.6726 6.63701L6.52575 18.5761C5.032 20.0444 2.63398 20.034 1.15294 18.553Z" fill="#00D873"/>
  <path d="M20.498 0.96257C20.9132 0.86584 21.2857 1.23841 21.189 1.65361L19.7088 8.0073C19.6064 8.447 19.0607 8.6029 18.7414 8.2837L13.868 3.41016C13.5487 3.09092 13.7046 2.54519 14.1443 2.44276L20.498 0.96257Z" fill="#00D873"/>
  <path d="M30.5214 17.0648C30.6657 17.209 30.6647 17.4433 30.5192 17.5863L15.742 32.1108C15.3414 32.5044 14.6985 32.5017 14.3014 32.1046L12.6547 30.4578C12.2527 30.0559 12.2555 29.4033 12.6609 29.0048L24.8337 17.0402C26.415 15.4859 28.9536 15.4969 30.5214 17.0648Z" fill="#00D873"/>
  <path d="M11.0196 34.4984C10.6044 34.5951 10.2318 34.2225 10.3286 33.8073L11.8087 27.4536C11.9112 27.0139 12.4569 26.858 12.7761 27.1773L17.6496 32.0508C17.9688 32.37 17.8129 32.9157 17.3733 33.0182L11.0196 34.4984Z" fill="#00D873"/>
</svg>

